<svg id="레이어_1" data-name="레이어 1" xmlns="http://www.w3.org/2000/svg" viewBox="0 0 159.39 32.82"><defs><style>.cls-1{fill:#3f464c;}.cls-2{fill:#e24719;}</style></defs><path class="cls-1" d="M934.62,555.62A7.29,7.29,0,0,0,931,553a31.2,31.2,0,0,0-3.57-1.16,23,23,0,0,1-5.71-1.95,2.17,2.17,0,0,1-1.12-1.72c0-.42,0-1.42,1.6-2.22a10.44,10.44,0,0,1,3.87-.81l.93,0a26.11,26.11,0,0,1,7.24,1V542a1.86,1.86,0,0,0-1.42-1.94,36.86,36.86,0,0,0-10.37-.4,18.67,18.67,0,0,0-5.57,1.46,7.76,7.76,0,0,0-3.57,3.12,7.57,7.57,0,0,0-.92,3.19c0,.31,0,.6,0,.88a7.69,7.69,0,0,0,.73,3.46,7.22,7.22,0,0,0,1.88,2.36,14,14,0,0,0,5.24,2.48,40.64,40.64,0,0,1,5.58,1.74,2.2,2.2,0,0,1,.24,4c-1,.64-2.35.93-4.89.82a34.68,34.68,0,0,1-8.48-1.31v5.86c.52.12,1.21.28,2.12.43a41.11,41.11,0,0,0,8.91.71c4.05-.1,7.25-1,9.27-2.51a6.92,6.92,0,0,0,2.89-5.53c0-.32,0-.63,0-.92A7.06,7.06,0,0,0,934.62,555.62Z" transform="translate(-912.31 -536.04)"/><path class="cls-1" d="M948.58,563.77a4.43,4.43,0,0,1-2.6-2,4.37,4.37,0,0,1-.51-2.41h11.84a1.78,1.78,0,0,0,1.86-2,15.83,15.83,0,0,0-.71-3.75,8,8,0,0,0-3.55-4.59,12.19,12.19,0,0,0-6.13-1.59,15.22,15.22,0,0,0-6.1,1.28,7.93,7.93,0,0,0-3.23,2.58,11.3,11.3,0,0,0-1.72,6.69c0,.43,0,.85,0,1.24a10.21,10.21,0,0,0,2.11,5.88c1.47,1.81,3.77,3.32,7.61,3.67,1.09.08,2.11.13,3.08.13a22.43,22.43,0,0,0,7.06-1V563.5a15.33,15.33,0,0,1-5.31.8A11.34,11.34,0,0,1,948.58,563.77ZM945.72,554a3.34,3.34,0,0,1,1.08-1.81,3.15,3.15,0,0,1,1.81-.69h.27a3.1,3.1,0,0,1,1.79.5,2.82,2.82,0,0,1,1,1.11,7.88,7.88,0,0,1,.32,2.63h-6.38A9,9,0,0,1,945.72,554Z" transform="translate(-912.31 -536.04)"/><path class="cls-1" d="M980.61,540H971.2a2.76,2.76,0,0,0-2.56,1.77l-.15.43h0l-8.89,26.1H968l1.86-6.74h9.79l2,6.74h8.81Zm-9.68,16.34,3.35-10.29h0l0-.06a.53.53,0,0,1,.51-.35.54.54,0,0,1,.52.34l3.33,10.36Z" transform="translate(-912.31 -536.04)"/><path class="cls-1" d="M1011.27,540a2.14,2.14,0,0,0-2.38,2.15v8.62h-8.35V540h-6.07a2.16,2.16,0,0,0-2.39,2.15v26.15h8.47V557.1h8.35v11.21h8.46V540Z" transform="translate(-912.31 -536.04)"/><path class="cls-2" d="M939,539.66l8.51,4.76a2.74,2.74,0,0,0,1.31.34,2.77,2.77,0,0,0,1.31-.34h0l7.5-4.26a1.1,1.1,0,0,0,.39-1.48L956.52,536l-6.4,3.6h0a2.67,2.67,0,0,1-1.31.35,2.74,2.74,0,0,1-1.31-.34l-5.53-3.1a1,1,0,0,0-1.44.39Z" transform="translate(-912.31 -536.04)"/><path class="cls-1" d="M1035.67,568.54c-7.26,0-9.92-4.69-9.92-10.47,0-6.75,3.4-11.66,10.69-11.66a21.67,21.67,0,0,1,4.79.61l-.39,3.21a15.88,15.88,0,0,0-4.69-.74c-4.53,0-6.58,3.47-6.58,8,0,5,2.15,7.9,6.87,7.9a11.67,11.67,0,0,0,4.56-1l.42,3.12A16.14,16.14,0,0,1,1035.67,568.54Z" transform="translate(-912.31 -536.04)"/><path class="cls-1" d="M1048.19,568.6a18.27,18.27,0,0,1-4.37-.51l.2-3.31a13.81,13.81,0,0,0,4.49.8c2.38,0,4.31-1,4.31-3.34,0-4.56-9.48-2.63-9.48-9.63,0-3.73,2.92-6.33,8-6.33a22.82,22.82,0,0,1,3.91.39l-.19,3.11a13.47,13.47,0,0,0-3.92-.61c-2.69,0-4.08,1.25-4.08,3.05,0,4.34,9.48,2.73,9.48,9.51C1056.51,565.71,1053.36,568.6,1048.19,568.6Z" transform="translate(-912.31 -536.04)"/><path class="cls-1" d="M1063.38,568.6a18.14,18.14,0,0,1-4.37-.51l.19-3.31a13.83,13.83,0,0,0,4.5.8c2.38,0,4.3-1,4.3-3.34,0-4.56-9.47-2.63-9.47-9.63,0-3.73,2.92-6.33,8-6.33a22.94,22.94,0,0,1,3.92.39l-.19,3.11a13.58,13.58,0,0,0-3.92-.61c-2.7,0-4.08,1.25-4.08,3.05,0,4.34,9.47,2.73,9.47,9.51C1071.69,565.71,1068.55,568.6,1063.38,568.6Z" transform="translate(-912.31 -536.04)"/></svg>